<svg xmlns="http://www.w3.org/2000/svg" viewBox="0 0 64 64" role="img" aria-label="restaurant marker">
    <rect width="64" height="64" rx="8" fill="#ffffff"/>
    <path d="M32 5c-11.6 0-21 9.1-21 20.4 0 15 21 33.6 21 33.6s21-18.6 21-33.6C53 14.1 43.6 5 32 5z" fill="#e85d3f"/>
    <circle cx="32" cy="25" r="13" fill="#ffffff"/>
    <path d="M27 16c1 0 1.8.8 1.8 1.8v13.7c0 1-.8 1.8-1.8 1.8s-1.8-.8-1.8-1.8V27h-1.4c-1 0-1.8-.8-1.8-1.8v-7.4c0-1 .8-1.8 1.8-1.8v6.8h1.4v-6.8H27zm10.8 0c2.2 1.5 3.4 4.1 3.4 7.4 0 3-1 5.2-2.8 6.5v1.6c0 1-.8 1.8-1.8 1.8s-1.8-.8-1.8-1.8V17.8c0-1 .8-1.8 1.8-1.8h1.2z" fill="#22252a"/>
</svg>
